<svg height="80" viewBox="0 -7 512 512"><path d="m266.238281 83.828125c7.851563 0 15.367188-6.902344 15.003907-15.003906-.363282-8.128907-6.589844-15.003907-15.003907-15.003907-7.847656 0-15.367187 6.898438-15.003906 15.003907.367187 8.128906 6.59375 15.003906 15.003906 15.003906zm0 0"/><path d="m382.835938 170.8125c7.847656 0 15.367187-6.902344 15.003906-15.003906-.363282-8.128906-6.59375-15.003906-15.003906-15.003906-7.847657 0-15.367188 6.898437-15.003907 15.003906.363281 8.128906 6.59375 15.003906 15.003907 15.003906zm0 0"/><path d="m134.816406 170.8125c7.847656 0 15.367188-6.902344 15.003906-15.003906-.363281-8.128906-6.59375-15.003906-15.003906-15.003906-7.847656 0-15.367187 6.898437-15.003906 15.003906.363281 8.128906 6.59375 15.003906 15.003906 15.003906zm0 0"/><path d="m473.980469 275.28125c3.933593-16.746094 5.933593-33.933594 5.933593-51.371094 0-59.808594-23.292968-116.035156-65.582031-158.328125-42.292969-42.292969-98.523437-65.582031-158.332031-65.582031s-116.039062 23.289062-158.328125 65.582031c-42.292969 42.292969-65.582031 98.523438-65.582031 158.332031 0 17.433594 1.996094 34.625 5.929687 51.367188l-38.019531-10.808594 70.546875 232.667969h370.90625l70.546875-232.667969zm-411.882813-51.367188c0-106.921874 86.984375-193.90625 193.902344-193.90625s193.902344 86.984376 193.902344 193.90625c0 20.90625-3.300782 41.390626-9.796875 61l-25.09375 7.136719-53.777344-24.066406-52.621094 23.550781-52.625-23.550781-52.625 23.550781-52.621093-23.550781-53.761719 24.066406-25.085938-7.136719c-6.496093-19.609374-9.796875-40.09375-9.796875-61zm126.972656 94.101563 11.167969 149.117187h-41.140625l-42.980468-150.773437 34.621093-15.5zm30.042969-.652344 36.871094-16.503906 36.875 16.503906-11.21875 149.769531h-51.304687zm103.792969.652344 38.328125-17.15625 34.433594 15.410156-43.003907 150.863281h-40.929687zm-278.238281-9.644531 41.320312 11.75 41.90625 147.011718h-35.085937zm374.523437 158.761718h-35.324218l41.886718-146.941406 41.574219-11.820312zm0 0"/><path d="m159.859375 99.367188 21.21875-21.21875 44.335937 44.335937-21.21875 21.21875zm0 0"/><path d="m274.910156 145.199219 44.332032-44.335938 21.21875 21.21875-44.332032 44.335938zm0 0"/></svg>