<svg id="Icons" viewBox="0 0 74 74" height="50" xmlns="http://www.w3.org/2000/svg"><path d="m33.287 53.59c-20.069 0-31.01-16.423-31.125-16.6a1 1 0 0 1 .129-1.251c12.361-12.439 31.717-23.188 53.723-3.739a.787.787 0 0 0 .469.2.733.733 0 0 0 .249-.024.809.809 0 0 0 .462-.349 29.331 29.331 0 0 1 11.245-9.88 1 1 0 0 1 1.084.164c3.418 3.066 1.1 7.7-.645 9.779-.173.3-1.241 2.361.841 4.9 2.977 3.638 2.2 9.72 2.168 9.978a1.026 1.026 0 0 1 -1.038.866c-6.093-.287-10.505-6.293-11.353-7.886-.234-.442-.528-.64-.873-.583-5.865 8.753-12.623 13.269-21.258 14.202a37.709 37.709 0 0 1 -4.078.223zm-28.979-17.036c2.392 3.198 13.819 16.882 32.842 14.825 8.2-.887 14.366-5.085 20-13.61a1.014 1.014 0 0 1 .4-.351 2.793 2.793 0 0 1 3.712 1.388c.865 1.626 4.412 5.953 8.717 6.719.079-1.709-.007-5.27-1.808-7.47-3.174-3.874-1.027-7.178-.935-7.317.022-.031.045-.062.07-.091.144-.171 3.319-3.975 1.336-6.564a27.79 27.79 0 0 0 -9.769 8.827 2.807 2.807 0 0 1 -1.585 1.184 2.692 2.692 0 0 1 -.938.1 2.79 2.79 0 0 1 -1.662-.7c-20.488-18.106-38.607-8.511-50.38 3.06z"/><path d="m15.6 48.835a1 1 0 0 1 -.533-1.847 12.411 12.411 0 0 0 1.185-20.188 1 1 0 0 1 1.254-1.558 14.41 14.41 0 0 1 -1.372 23.437.991.991 0 0 1 -.534.156z"/><circle cx="13.465" cy="35.087" r="1.843"/><path d="m13.465 37.43a2.343 2.343 0 1 1 2.343-2.343 2.346 2.346 0 0 1 -2.343 2.343zm0-3.685a1.343 1.343 0 1 0 1.343 1.342 1.344 1.344 0 0 0 -1.343-1.342z"/><path d="m39.49 24.547a1 1 0 0 1 -.992-.885 5.163 5.163 0 0 1 .67-3.338.36.36 0 0 0 -.064-.506 36.568 36.568 0 0 0 -8.874-3.318 1.376 1.376 0 0 0 -1.4.616 16.766 16.766 0 0 0 -2.262 6 1 1 0 1 1 -1.978-.287 18.63 18.63 0 0 1 2.552-6.787 3.341 3.341 0 0 1 3.446-1.512 38.042 38.042 0 0 1 9.629 3.626 2.344 2.344 0 0 1 .652 3.215 3.213 3.213 0 0 0 -.387 2.06 1 1 0 0 1 -.878 1.108.914.914 0 0 1 -.114.008z"/><path d="m51.5 30.684a1 1 0 0 1 -.844-1.536l1.444-2.266a24.252 24.252 0 0 1 -4.508-3.118.168.168 0 0 0 -.108-.041 5.3 5.3 0 0 0 -2.718 2.006 1 1 0 0 1 -1.666-1.106 7.272 7.272 0 0 1 3.926-2.847 2.147 2.147 0 0 1 1.833.441 20.412 20.412 0 0 0 4.253 2.9c.027.014.063.036.088.052a1.84 1.84 0 0 1 .849 1.164 2.078 2.078 0 0 1 -.26 1.622l-1.44 2.265a1 1 0 0 1 -.849.464z"/><path d="m33.29 59.521a2.477 2.477 0 0 1 -1.254-.335c-2.643-1.561-4.429-6.067-4.623-6.576a1 1 0 1 1 1.867-.71c.462 1.2 2.04 4.545 3.773 5.568a.539.539 0 0 0 .463.014 76.515 76.515 0 0 1 11.14-3.723.223.223 0 0 0 .148-.114.459.459 0 0 0 .057-.315l-.987-2.568a1 1 0 1 1 1.867-.718l1.012 2.632a.894.894 0 0 1 .032.1 2.455 2.455 0 0 1 -.278 1.917 2.208 2.208 0 0 1 -1.438 1.023 76.872 76.872 0 0 0 -10.8 3.622 2.623 2.623 0 0 1 -.979.183z"/><path d="m27.717 41.243a1 1 0 0 1 -.825-1.564l.887-1.3-.907-1.435a1 1 0 0 1 .156-1.258l.6-.569-.693-.878a1 1 0 0 1 1.565-1.239l1.258 1.593a1 1 0 0 1 -.1 1.344l-.658.629.82 1.3a1 1 0 0 1 -.019 1.1l-1.258 1.845a1 1 0 0 1 -.826.432z"/><path d="m33.72 41.243a1 1 0 0 1 -.825-1.564l.887-1.3-.907-1.435a1 1 0 0 1 .156-1.258l.6-.569-.693-.878a1 1 0 0 1 1.568-1.239l1.258 1.593a1 1 0 0 1 -.1 1.344l-.664.629.82 1.3a1 1 0 0 1 -.019 1.1l-1.258 1.845a1 1 0 0 1 -.823.432z"/><path d="m39.722 41.243a1 1 0 0 1 -.826-1.564l.889-1.3-.907-1.434a1 1 0 0 1 .155-1.259l.6-.569-.693-.877a1 1 0 1 1 1.567-1.24l1.259 1.593a1 1 0 0 1 -.095 1.345l-.664.631.819 1.3a1 1 0 0 1 -.018 1.1l-1.259 1.845a1 1 0 0 1 -.827.429z"/></svg>