<svg height="80" viewBox="-48 0 480 480" xmlns="http://www.w3.org/2000/svg"><path d="m71.996094 440h48v32c0 4.417969 3.582031 8 8 8h32c4.417968 0 8-3.582031 8-8v-32h48c3.910156 0 7.246094-2.832031 7.886718-6.6875l64-384c.386719-2.320312-.265624-4.691406-1.785156-6.484375-1.519531-1.792969-3.75-2.828125-6.101562-2.828125h-112v-32c0-4.417969-3.582032-8-8-8h-32c-4.417969 0-8 3.582031-8 8v32h-112c-2.351563 0-4.582032 1.035156-6.101563 2.828125s-2.171875 4.164063-1.785156 6.484375l64 384c.640625 3.855469 3.976563 6.6875 7.886719 6.6875zm80 24h-16v-24h16zm-16-448h16v24h-16zm-78.558594 280h22.558594v-16h-25.222656l-5.335938-32h70.558594v-16h-73.222656l-5.335938-32h54.558594v-16h-57.222656l-5.335938-32h30.558594v-16h-33.222656l-5.328126-32h46.550782v-16h-49.222656l-5.328126-32h253.101563l-5.328125 32h-25.222656v16h22.550781l-53.328125 320h-130.445312l-5.335938-32h22.558594v-16h-25.222656l-5.335938-32h46.558594v-16h-49.222656zm0 0"/><path d="m79.996094 136h48v16h-48zm0 0"/><path d="m111.996094 376h32v16h-32zm0 0"/><path d="m127.996094 328h16v16h-16zm0 0"/><path d="m95.996094 280h48v16h-48zm0 0"/><path d="m111.996094 184h32v16h-32zm0 0"/><path d="m87.996094 88h56v16h-56zm0 0"/><path d="m199.996094 184h24v16h-24zm0 0"/><path d="m175.996094 280h24v16h-24zm0 0"/><path d="m167.996094 136h24v16h-24zm0 0"/><path d="m175.996094 376h24v16h-24zm0 0"/><path d="m311.996094 368h16v75.054688l-6.121094 3.066406c-7.410156 3.714844-11.296875 12.035156-9.394531 20.101562 1.90625 8.070313 9.105469 13.769532 17.394531 13.777344h46.121094c4.417968 0 8-3.582031 8-8v-424c0-4.417969-3.582032-8-8-8-39.746094.042969-71.957032 32.253906-72 72v248c0 4.417969 3.582031 8 8 8zm56 96h-38.113282c-.867187-.019531-1.605468-.628906-1.796874-1.476562-.1875-.84375.222656-1.710938 1-2.097657l10.527343-5.265625c2.695313-1.367187 4.390625-4.136718 4.382813-7.160156v-80h24zm-48-352c.035156-27.824219 20.464844-51.417969 48-55.433594v295.433594h-48zm0 0"/></svg>