<svg enable-background="new 0 0 512 512" height="26" viewBox="0 0 512 512" xmlns="http://www.w3.org/2000/svg"><g><g><g><path d="m292 312h-237.5c-30.05 0-54.5 24.45-54.5 54.5v60.5c0 8.28 6.72 15 15 15h316.5c8.29 0 15-6.72 15-15v-60.5c0-30.05-24.44-54.5-54.5-54.5zm-217 80c-8.28 0-15-6.72-15-15s6.72-15 15-15 15 6.72 15 15-6.72 15-15 15zm136.5 0h-76.5c-8.28 0-15-6.72-15-15s6.72-15 15-15h76.5c8.29 0 15 6.72 15 15s-6.71 15-15 15zm60.01 0c-8.29 0-15-6.72-15-15s6.71-15 15-15c8.28 0 15 6.72 15 15s-6.72 15-15 15z"/></g></g><g><path d="m110 472v7.44c0 17.95-14.61 32.56-32.56 32.56h-19.88c-17.95 0-32.56-14.61-32.56-32.56v-7.44z"/></g><g><path d="m321.5 472v7.44c0 17.95-14.6 32.56-32.56 32.56h-19.87c-17.96 0-32.57-14.61-32.57-32.56v-7.44z"/></g><g><g><path d="m297.14 282.16c-1.7-.11-3.41-.16-5.14-.16h-237.5c-1.73 0-3.44.05-5.14.16l15.22-50.3c5.55-18.37 22.18-30.72 41.37-30.72h134.6c19.19 0 35.82 12.35 41.38 30.72z"/></g></g><g><g><path d="m413.28 95.34c0 7.37-6.49 13.6-14.17 13.6-3.13 0-8.16.02-13.11.05-.06-14.02-.02-9.39-.07-27.26h13.18c7.68 0 14.17 6.23 14.17 13.61z"/><path d="m394.58 0c-64.74 0-117.41 52.67-117.41 117.42 0 64.74 52.67 117.41 117.41 117.41 64.75 0 117.42-52.67 117.42-117.41 0-64.75-52.67-117.42-117.42-117.42zm4.53 138.94c-3.1 0-8.21.03-13.22.05v29.11c0 8.28-6.72 15-15 15-8.29 0-15-6.72-15-15v-101.37c0-8.29 6.76-15 15-15h28.22c24.36 0 44.17 19.56 44.17 43.61 0 24.04-19.81 43.6-44.17 43.6z"/></g></g><path d="m446.02 497c0 8.28-6.72 15-15 15h-72.87c-8.29 0-15-6.72-15-15s6.71-15 15-15h21.43v-217.93c4.93.5 9.94.76 15 .76s10.07-.26 15-.76v217.93h21.44c8.28 0 15 6.72 15 15z"/></g></svg>