<svg height="50" viewBox="0 -8 512.00013 512" xmlns="http://www.w3.org/2000/svg"><path d="m510.25 185.597656c-1.261719-1.871094-3.070312-3.210937-5.101562-3.890625-7.273438-4.136719-35.703126-19.144531-73.40625-24.054687 16.679687-21.5 27.457031-47.023438 33.90625-73.328125 1.503906-6.128907.675781-13.011719-6.515626-14.863281-5.964843-1.539063-13.898437.242187-19.9375 1-13.355468 1.683593-26.523437 4.910156-39.066406 9.8125-14.023437 5.484374-27.1875 13.035156-39.054687 22.292968.078125-21.996094-4.882813-43.71875-13.234375-64.003906-4.617188-11.214844-10.1875-22.179688-16.667969-32.433594-2.496094-3.945312-6.042969-6.808594-11-5.988281-5.558594.917969-9.371094 6.976563-12.753906 11.023437-24.929688 29.800782-38.296875 67.011719-37.777344 105.847657.230469 17.007812 2.90625 33.945312 7.476563 50.316406-21.414063-15.246094-46.136719-26.671875-72.582032-28.929687-25.230468-2.152344-50.054687 4.683593-71.675781 17.585937-18.601563 11.105469-34.15625 25.859375-42.667969 46.078125-8.59375 20.417969-9.398437 43.226562-6.175781 64.898438 3.328125 22.378906 10.542969 44.675781 20.804687 64.863281 3.226563 23.8125-14.375 47.671875-29.699218 63.65625-24.066406 25.097656-47.03125 51.238281-68.667969 78.464843-1.539063 1.933594-3.222656 3.835938-4.621094 5.875-6.167969 9.015626 4.457031 20.972657 13.804688 14.179688l.082031-.0625c25.050781-18.125 50.613281-35.894531 77.324219-51.503906 13.414062-7.839844 27.8125-13.71875 40.644531-22.554688 13.160156-9.0625 25.746094-20.40625 42.367188-22.195312 8.796874-.949219 17.59375 4.476562 25.152343 8.246094 6.925781 3.453124 13.878907 6.859374 21.148438 9.539062 16.628906 6.132812 34.285156 7.820312 51.734375 4.660156 33.769531-6.121094 68.03125-26.046875 84.125-57.191406 20.75-40.15625 8.351562-88.554688-14.15625-125.152344 29.910156 10.375 62.304687 12.464844 92.953125 4.011719 24.21875-6.679687 46.914062-19.558594 65.269531-36.691406 5.238281-4.890625 13.300781-11.632813 7.96875-19.507813-1.261719-1.871094 2.511719 3.707032 0 0zm-167.113281-35.824218c.082031-.117188.160156-.230469.25-.339844.613281-.839844 1.242187-1.679688 1.882812-2.507813.007813-.019531.03125-.039062.039063-.050781.628906-.828125 1.28125-1.648438 1.941406-2.476562 2.007812-2.519532 4.082031-4.980469 6.222656-7.378907 22.128906-26.605469 55.871094-42.964843 89.894532-46.910156-7.976563 26.792969-20.269532 48.929687-36.675782 65.964844-28.492187.292969-56.425781 7.625-80.898437 22.367187 3.746093-7.609375 8.214843-14.277344 12.382812-21.566406.472657-.710938.953125-1.429688 1.453125-2.140625 1.167969-1.652344 2.339844-3.308594 3.507813-4.960937.082031-.117188-.546875.742187 0 0zm-22.917969-122.652344c17.796875 32.742187 24.230469 64.855468 19.167969 95.648437-10.03125 11.074219-18.511719 23.328125-25.9375 36.273438 0 0-.011719 0-.011719.007812-3.953125 7.09375-7.5625 14.371094-10.753906 21.835938-9.976563-25.460938-15.019532-53.308594-12.351563-80.632813 2.609375-26.804687 13.167969-52.0625 29.886719-73.132812 17.796875 32.742187 0 0 0 0zm27.089844 306.59375c-4.574219 23.902344-20.425782 42.445312-41.53125 53.851562-18.730469 10.128906-40.4375 16.777344-61.832032 13.109375-17.585937-3.011719-32.042968-13.023437-48.386718-19.390625-12.09375-4.710937-23.5-4.214844-35.722656-.199218-9.554688 3.140624-18.019532 8.296874-26.132813 14.140624-10.242187 7.378907-20.308594 14.410157-31.785156 19.804688-13.183594 6.191406-25.640625 13.941406-37.910157 21.75 23.089844-25.757812 51.242188-49.492188 59.125-84.769531 1.652344-7.398438 2.453126-15.203125 1.503907-22.761719-.613281-4.882812-3.289063-9.019531-5.273438-13.464844-13.109375-29.355468-22.8125-65.140625-13.878906-97.023437 9.042969-32.28125 41.382813-53.550781 73.203125-59.265625 43.347656-7.78125 83.277344 17.320312 113.160156 46.195312.757813 1.511719 5.578125 10.929688 8.554688 10.929688 1.9375.613281 3.574218 1.609375 4.910156 2.980468.589844.660157 1.171875 1.300782 1.761719 1.960938l.152343.167969c31.261719 35.011719 46.625 77.921875 40.082032 111.984375-2.328125 12.175781 6.542968-34.0625 0 0-4.574219 23.902344 6.542968-34.0625 0 0zm98.207031-115.867188c-39.324219 15.816406-81.070313 11.75-124.195313-12.125 6.40625-4.976562 13.441407-9.824218 20.746094-13.476562 20.617188-11.554688 45.097656-16.65625 68.597656-16.148438h.140626c31.839843.589844 59.269531 10.910156 74.046874 17.738282-8.265624 7.097656-21.679687 16.90625-39.335937 24.011718-39.324219 15.816406 17.65625-7.105468 0 0zm0 0"/><path d="m255.636719 227.367188c-3.023438 0-6.007813-1.367188-7.976563-3.957032-13.484375-17.761718-29.472656-26.496094-47.507812-25.910156-5.53125.128906-10.140625-4.15625-10.316406-9.675781-.171876-5.519531 4.160156-10.132813 9.683593-10.308594 17.101563-.550781 42.121094 4.882813 64.078125 33.808594 3.339844 4.398437 2.480469 10.671875-1.921875 14.007812-1.808593 1.371094-3.933593 2.03125-6.039062 2.035157zm0 0"/><path d="m162.796875 204.960938c-5.527344 0-10.011719-4.476563-10.011719-9.996094 0-5.519532 4.476563-10 10-10h.011719c5.523437 0 10.003906 4.480468 10.003906 10 0 5.519531-4.480469 9.996094-10.003906 9.996094zm0 0"/></svg>