<svg height="38" viewBox="0 0 512 512" xmlns="http://www.w3.org/2000/svg"><g id="Outline"><path d="m255.53 495.544a239.532 239.532 0 0 1 -195.68-376.904 239.48 239.48 0 0 1 333.534-58.812q7.791 5.456 15.138 11.506v-23.334a31.5 31.5 0 1 1 63 0v112a31.535 31.535 0 0 1 -31.5 31.5h-112a31.5 31.5 0 0 1 0-63h50.078a178.885 178.885 0 0 0 -20.848-17.067 176.691 176.691 0 0 0 -245.791 43.34c-55.82 79.715-36.378 189.977 43.339 245.793a176.5 176.5 0 0 0 277.722-144.538 31.536 31.536 0 0 1 31.478-31.528h.028a31.54 31.54 0 0 1 31.5 31.472 239.528 239.528 0 0 1 -197.92 235.873 243.2 243.2 0 0 1 -42.078 3.699zm.97-464.083a227.1 227.1 0 0 0 -39.455 3.468 224.482 224.482 0 0 0 -89.776 404.957 222.647 222.647 0 0 0 128.261 40.658 228.036 228.036 0 0 0 39.47-3.472 224.525 224.525 0 0 0 185.522-221.086 16.52 16.52 0 0 0 -16.5-16.485h-.022a16.5 16.5 0 0 0 -16.48 16.514 191.428 191.428 0 0 1 -191.753 191.406 190.127 190.127 0 0 1 -109.571-34.567c-86.496-60.561-107.587-180.194-47.026-266.683a191.695 191.695 0 0 1 302.075-15.064 7.5 7.5 0 0 1 -5.684 12.394h-67.539a16.5 16.5 0 0 0 0 33h112a16.519 16.519 0 0 0 16.5-16.5v-112.001a16.5 16.5 0 1 0 -33 0v39.968a7.5 7.5 0 0 1 -12.664 5.439 227.508 227.508 0 0 0 -26.078-21.292 222.861 222.861 0 0 0 -128.28-40.654z"/></g></svg>