<svg height="50" viewBox="0 0 512.023 512.023" xmlns="http://www.w3.org/2000/svg"><g><path d="m205.704 103.713c2.929 2.929 7.677 2.928 10.606 0 2.93-2.929 2.93-7.677.001-10.606-5.471-5.471-5.471-14.373 0-19.844 11.318-11.319 11.318-29.737 0-41.057-2.929-2.929-7.678-2.929-10.606 0-2.93 2.929-2.93 7.677-.001 10.606 5.471 5.471 5.471 14.373 0 19.844-11.319 11.319-11.319 29.738 0 41.057zm158.389 142.748-107.833 107.834c-2.929 2.929-2.929 7.678 0 10.606 2.929 2.929 7.677 2.929 10.607 0l107.833-107.833c2.929-2.929 2.929-7.678 0-10.606-2.929-2.93-7.677-2.93-10.607-.001zm-124.19-176.633c0 9.85 3.836 19.111 10.801 26.076 2.929 2.929 7.678 2.929 10.607 0s2.929-7.678 0-10.606c-8.53-8.53-8.53-22.409 0-30.939 14.378-14.378 14.378-37.774 0-52.153-2.93-2.929-7.678-2.929-10.607 0s-2.929 7.678 0 10.606c8.53 8.53 8.53 22.41 0 30.94-6.965 6.965-10.801 16.226-10.801 26.076zm55.801 33.885c2.929 2.929 7.677 2.928 10.606 0 2.93-2.929 2.93-7.677.001-10.606-5.471-5.471-5.471-14.373 0-19.844 11.318-11.319 11.318-29.737 0-41.057-2.929-2.929-7.678-2.929-10.606 0-2.93 2.929-2.93 7.677-.001 10.606 5.471 5.471 5.471 14.373 0 19.844-11.319 11.319-11.319 29.738 0 41.057zm-60.314 59.493c-42.055 2.783-86.145 15.354-120.962 34.49-32.077 17.63-72.57 49.544-83.312 101.469-1.295 6.263-2.117 14.794 1.323 19.869 3.214 4.745 10.713 6.95 16.438 7.964 14.277 2.53 29.238 3.596 43.279 4.371 39.936 2.201 72.778 15.276 97.615 38.863 20.508 19.475 38.078 42.022 52.562 61.51 23.39 31.474 62.201 50.266 103.826 50.268 9.976 0 19.906-1.107 29.516-3.292 27.188-6.18 51.604-21.434 70.605-44.113 18.4-21.96 30.63-50.01 34.436-78.982 2.438-18.574 1.461-37.06-2.906-54.942-10.663-43.663-38.199-78.345-81.844-103.083-35.124-19.909-78.292-31.82-124.836-34.447-4.136-.229-7.677 2.93-7.911 7.066-.233 4.135 2.93 7.677 7.065 7.911 43.622 2.461 85.63 14.01 118.285 32.52 39.903 22.617 65.025 54.106 74.668 93.592 3.926 16.073 4.802 32.704 2.605 49.431-3.438 26.179-14.47 51.5-31.061 71.301-16.879 20.145-38.467 33.672-62.432 39.12-8.521 1.937-17.333 2.919-26.196 2.919-36.897-.002-71.209-16.531-91.782-44.215-14.864-20.001-32.937-43.18-54.271-63.439-27.49-26.106-63.53-40.561-107.119-42.963-13.572-.749-27.992-1.771-41.488-4.163-3.271-.58-5.345-1.337-6.427-1.854-.135-1.375-.11-4.069.738-8.171 9.584-46.325 46.536-75.252 75.848-91.362 32.965-18.118 74.782-30.025 114.728-32.668 4.133-.273 7.262-3.845 6.988-7.979-.272-4.136-3.861-7.244-7.978-6.991zm90.08 202.895c0 22.723 18.486 41.209 41.209 41.209s41.209-18.486 41.209-41.209-18.486-41.209-41.209-41.209-41.209 18.487-41.209 41.209zm67.418 0c0 14.452-11.757 26.209-26.209 26.209s-26.209-11.757-26.209-26.209 11.757-26.209 26.209-26.209 26.209 11.758 26.209 26.209zm114.065-72.538c-12.524-51.285-45.787-93.495-96.194-122.065-43.454-24.631-98.782-38.436-155.79-38.871-52.437-.376-108.571 13.526-153.947 38.208-54.543 29.668-88.875 71.942-99.283 122.251-3.589 17.348-1.613 31.741 5.87 42.782 7.302 10.772 19.425 17.726 36.033 20.669 15.843 2.808 31.886 3.959 46.863 4.786 32.63 1.798 59.077 12.115 78.609 30.663 18.856 17.907 35.422 39.191 49.14 57.65 32.787 44.119 88.684 67.209 144.556 61.529 4.121-.419 7.122-4.1 6.703-8.22-.42-4.122-4.106-7.124-8.221-6.703-51.445 5.239-101.643-16.053-130.999-55.554-14.099-18.973-31.166-40.888-50.85-59.58-22.185-21.067-51.83-32.763-88.112-34.763-14.509-.8-30.011-1.908-45.072-4.578-12.466-2.209-21.292-7.026-26.233-14.316-5.124-7.559-6.334-18.098-3.598-31.326 11.984-57.928 56.515-92.942 91.761-112.114 42.576-23.159 97.368-36.798 146.665-36.385 54.497.416 107.239 13.527 148.509 36.92 46.719 26.48 77.501 65.408 89.019 112.575 4.81 19.694 5.889 40.034 3.206 60.454-8.028 61.13-47.964 112.75-101.74 131.507-3.911 1.364-5.976 5.641-4.612 9.552s5.64 5.976 9.552 4.611c59.079-20.606 102.913-77.018 111.674-143.717 2.921-22.266 1.742-44.46-3.509-65.965zm-273.264-86.09c-2.93-2.929-7.678-2.929-10.607 0l-79.43 79.43c-2.929 2.929-2.929 7.678 0 10.606 2.929 2.929 7.677 2.929 10.607 0l79.43-79.43c2.929-2.928 2.929-7.677 0-10.606zm73.726 5.667-102.309 102.309c-2.929 2.929-2.929 7.678 0 10.606 2.93 2.93 7.677 2.929 10.607 0l102.309-102.309c2.929-2.929 2.929-7.678 0-10.606-2.93-2.928-7.678-2.928-10.607 0z"/></g></svg>