<svg height="26" viewBox="0 -82 491.45655 491" xmlns="http://www.w3.org/2000/svg"><path d="m416.730469.226562v.222657h-323.371094c-48.175781-.015625-87.277344 38.964843-87.402344 87.140625l-5.95312475 231.042968c-.05468745 2.101563.76562475 4.128907 2.26953175 5.601563 1.527343 1.488281 3.59375 2.289063 5.726562 2.214844h333.601562c4.371094.03125 7.945313-3.476563 8-7.847657l.441407-40.152343h63.476562v.09375c21.777344 0 41.847657-15.113281 56.511719-42.632813 13.816406-25.929687 21.425781-60.199218 21.425781-96.546875 0-36.34375-7.367187-70.628906-21.179687-96.554687-14.046875-26.371094-33.546875-41.367188-53.546875-42.582032zm-400.523438 310.222657 5.746094-222.855469c0-.070312 0 .097656 0 .027344.0625-39.371094 32.035156-71.238282 71.40625-71.171875h283.371094c-7.914063 7.746093-14.546875 16.699219-19.648438 26.523437-13.820312 25.929688-21.351562 60.070313-21.351562 96.414063v.0625l-2.046875 171zm334.011719-48 .445312-40.171875c1.945313 4.734375 4.058594 9.246094 6.339844 13.539062 5.125 9.863282 11.785156 18.851563 19.726563 26.632813zm63.375.1875c-33.554688 0-61.863281-56.363281-61.863281-123.113281v-.136719c0-66.804688 28.289062-123.246094 61.863281-123.246094s61.933594 56.441406 61.933594 123.246094c0 66.808593-28.359375 123.25-61.933594 123.25zm0 0"/><path d="m413.519531 87.789062c-17.765625 0-31.164062 22.183594-31.164062 51.601563s13.402343 51.597656 31.164062 51.597656 31.160157-22.179687 31.160157-51.597656-13.394532-51.601563-31.160157-51.601563zm0 87.199219c-6.183593 0-15.164062-13.867187-15.164062-35.597656 0-21.734375 8.980469-35.601563 15.164062-35.601563 6.183594 0 15.160157 13.867188 15.160157 35.601563 0 21.730469-8.980469 35.59375-15.160157 35.59375zm0 0"/></svg>