<svg height="50" viewBox="0 0 512 512" xmlns="http://www.w3.org/2000/svg"><path d="m113 123c5.519531 0 10-4.480469 10-10 0-5.546875-4.511719-10-10-10-5.519531 0-10 4.480469-10 10 0 5.480469 4.449219 10 10 10zm0 0"/><path d="m256 0c-138.03125 0-256 117.816406-256 256 0 137.90625 117.695312 256 256 256 137.914062 0 256-117.703125 256-256 0-137.914062-117.703125-256-256-256zm0 492c-127.925781 0-236-108.074219-236-236s108.074219-236 236-236 236 108.074219 236 236-108.074219 236-236 236zm0 0"/><path d="m256 43c-42.09375 0-85.40625 12.722656-118.828125 34.90625-4.605469 3.058594-5.859375 9.261719-2.804687 13.863281 3.054687 4.601563 9.261718 5.855469 13.863281 2.800781 30.230469-20.0625 69.511719-31.570312 107.769531-31.570312 104.617188 0 193 88.382812 193 193s-88.382812 193-193 193-193-88.382812-193-193c0-38.257812 11.507812-77.539062 31.570312-107.769531 3.054688-4.601563 1.800782-10.808594-2.800781-13.863281-4.597656-3.050782-10.804687-1.800782-13.863281 2.804687-22.183594 33.421875-34.90625 76.734375-34.90625 118.828125 0 115.722656 97.105469 213 213 213 115.792969 0 213-97.160156 213-213 0-115.613281-96.964844-213-213-213zm0 0"/><path d="m246 227.71875c-11.640625 4.128906-20 15.246094-20 28.28125 0 16.542969 13.457031 30 30 30 13.035156 0 24.152344-8.359375 28.28125-20h51.71875c5.523438 0 10-4.476562 10-10s-4.476562-10-10-10h-51.71875c-3.019531-8.507812-9.773438-15.261719-18.28125-18.28125v-71.71875c0-5.523438-4.476562-10-10-10s-10 4.476562-10 10zm10 38.28125c-5.515625 0-10-4.484375-10-10s4.484375-10 10-10 10 4.484375 10 10-4.484375 10-10 10zm0 0"/><path d="m256 126c5.523438 0 10-4.476562 10-10v-20c0-5.523438-4.476562-10-10-10s-10 4.476562-10 10v20c0 5.523438 4.476562 10 10 10zm0 0"/><path d="m246 396v20c0 5.523438 4.476562 10 10 10s10-4.476562 10-10v-20c0-5.523438-4.476562-10-10-10s-10 4.476562-10 10zm0 0"/><path d="m96 246c-5.523438 0-10 4.476562-10 10s4.476562 10 10 10h20c5.523438 0 10-4.476562 10-10s-4.476562-10-10-10zm0 0"/><path d="m416 266c5.523438 0 10-4.476562 10-10s-4.476562-10-10-10h-20c-5.523438 0-10 4.476562-10 10s4.476562 10 10 10zm0 0"/><path d="m135.789062 376.210938c3.90625 3.90625 10.238282 3.90625 14.140626 0l14.152343-14.148438c3.902344-3.90625 3.90625-10.238281 0-14.144531-3.90625-3.902344-10.238281-3.902344-14.144531 0l-14.148438 14.148437c-3.90625 3.90625-3.90625 10.238282 0 14.144532zm0 0"/><path d="m376.210938 135.789062c-3.90625-3.902343-10.234376-3.902343-14.144532 0l-14.148437 14.148438c-3.902344 3.90625-3.902344 10.238281 0 14.144531 3.90625 3.902344 10.238281 3.902344 14.144531 0l14.148438-14.148437c3.90625-3.90625 3.90625-10.238282 0-14.144532zm0 0"/><path d="m362.0625 347.917969c-3.90625-3.902344-10.238281-3.902344-14.144531 0-3.902344 3.90625-3.902344 10.238281 0 14.144531l14.148437 14.148438c3.910156 3.90625 10.238282 3.902343 14.144532 0 3.90625-3.90625 3.90625-10.238282 0-14.144532zm0 0"/><path d="m149.9375 164.082031c3.90625 3.902344 10.238281 3.902344 14.144531 0 3.902344-3.90625 3.902344-10.238281 0-14.144531l-14.152343-14.148438c-3.902344-3.902343-10.234376-3.902343-14.140626 0-3.90625 3.90625-3.90625 10.238282 0 14.144532zm0 0"/></svg>