<svg height="80" viewBox="-30 0 512 512.1205" xmlns="http://www.w3.org/2000/svg"><path d="m7.359375 160.546875c-.625 5.269531-1.71875 10.472656-3.269531 15.546875-9.984375 26.398438-.953125 56.207031 22.007812 72.621094 3.40625 2.289062 5.570313 6.015625 5.878906 10.109375.972657 14.578125 8.773438 48.496093 60.082032 48.496093 19.628906 0 43.078125 28.808594 50.21875 53.597657 2.085937 7.425781 6.71875 13.886719 13.082031 18.246093 7.652344 5.113282 14.605469 11.203126 20.683594 18.113282.070312.085937.105469.199218.171875.273437 5.710937 6.53125 10.292968 13.96875 13.550781 22.007813l.101563.25c.710937 1.800781 1.324218 3.617187 1.871093 5.460937 0 .136719.085938.261719.128907.398438.527343 1.828125.960937 3.679687 1.328124 5.546875 0 .128906.0625.257812.085938.394531.375 1.96875.65625 3.96875.855469 5.972656v.078125c.199219 2.046875.292969 4.113282.289062 6.195313 0 13.539062 4.554688 68.265625 25.601563 68.265625h34.132812c2.261719 0 4.433594-.902344 6.03125-2.5 1.84375-1.84375 11.035156-12.433594 11.035156-40.167969-.933593-10.949219-3.429687-21.710937-7.417968-31.957031 1.785156-15.855469 6.828125-35.4375 20.480468-42.769532 6.199219-3.046874 11.277344-7.980468 14.507813-14.085937 3.394531-8.660156 11.558594-14.511719 20.847656-14.945313 9.488281-.125 18.703125-3.175781 26.394531-8.738281 9.511719-7.167969 28.242188-18.90625 46.726563-16.578125 7.554687.851563 15.199219-.273437 22.1875-3.269531 23.464844-9.515625 34.132813-27.425781 29.34375-49.132813-.914063-3.785156-.722656-7.757812.554687-11.4375 5.710938-15.453124 12.691407-44.105468-4.761718-62.417968-3.96875-4.683594-6.378906-10.488282-6.894532-16.609375-2.234374-15.863281-12.148437-43.628907-53.519531-51.4375-2.039062-.355469-4.039062-.898438-5.972656-1.628907-1.136719-.445312-2.5625-.957031-4.105469-1.476562 7.101563-17.1875 4.324219-36.875-7.253906-51.429688-2.800781-3.621093-4.382812-8.039062-4.523438-12.613281.441407-11.183593-3.78125-22.046875-11.664062-29.996093-11.199219-9.261719-25.644531-13.652344-40.105469-12.183594-6.425781.4375-12.597656-2.574219-16.214843-7.902344-9.964844-17.324219-30.605469-25.433594-49.699219-19.523438-4.554688 1.273438-9.4375.515626-13.394531-2.074218-11.964844-7.449219-26.597657-9.257813-40.011719-4.949219-4.410157 1.355469-9.101563 1.503906-13.585938.425781-15.140625-4.582031-31.570312-.351562-42.617187 10.964844-5.824219 5.109375-12.578125 9.046875-19.890625 11.597656-11.679688 4.773438-20.339844 14.882813-23.269531 27.152344-1.402344 4.324219-3.515626 8.382812-6.253907 12.007812-4.738281 7.832032-6.832031 16.980469-5.976562 26.09375-8.882813 3.5-16.988281 8.71875-23.847657 15.359376-4 3.574218-8.445312 6.621093-13.21875 9.0625-17.308593 9-28.871093 26.164062-30.710937 45.585937zm246.714844 313.875c-.089844 7.109375-1.617188 14.128906-4.488281 20.632813h-27.5625c-7.277344-16.070313-10.867188-33.566407-10.496094-51.199219 0-2.5625-.128906-5.191407-.367188-7.742188 0-.398437-.113281-.777343-.152344-1.175781-1.761718-15.578125-7.757812-30.371094-17.339843-42.777344l-.503907-.667968c-.742187-.980469-1.425781-1.96875-2.21875-2.925782-4.878906-34.269531-13.550781-67.894531-25.855468-100.25l-.113282-.332031c-4.316406-12.21875-8.847656-24.277344-13.363281-35.738281 24.84375 38.636718 47.703125 78.511718 68.496094 119.46875l.085937.230468c.488282 1.277344.980469 2.558594 1.496094 3.90625.425782 1.082032.851563 2.210938 1.304688 3.34375.808594 2.074219 1.636718 4.191407 2.5 6.351563.316406.808594.640625 1.621094.972656 2.449219.921875 2.324218 1.867188 4.6875 2.832031 7.082031.324219.808594.605469 1.535156.9375 2.363281l.539063 1.339844c1.648437 4.105469 3.3125 8.261719 4.957031 12.414062 2.628906 6.640626 5.214844 13.238282 7.570313 19.570313v.109375c1.3125 3.523438 2.558593 6.972656 3.703124 10.300781 3.652344 9.0625 6.066407 18.574219 7.183594 28.277344 0 1.75-.039062 3.414063-.117187 4.96875zm42.402343-211.066406c-12.839843 20.769531-23.96875 42.542969-33.28125 65.109375-.148437.304687-.273437.617187-.375.941406-8.535156 20.417969-15.042968 39.398438-19.625 54.269531-2.511718-6.261719-4.925781-12.347656-7.015624-17.875l-.800782-2.125c12.375-37.695312 33.285156-72.023437 61.097656-100.320312zm80.007813-100.53125c23.558594 4.457031 36.949219 16.921875 39.773437 37.0625.972657 9.664062 4.976563 18.773437 11.445313 26.027343 11.476563 12.03125 4.597656 35.273438 1.109375 44.714844-2.417969 6.753906-2.835938 14.0625-1.203125 21.050782 1.097656 4.964843 4.453125 20.078124-19.097656 29.625-4.296875 1.863281-8.996094 2.601562-13.65625 2.152343-23.253907-2.839843-44.953125 9.222657-59.082031 19.882813-4.882813 3.457031-10.714844 5.3125-16.691407 5.316406-15.582031.605469-29.425781 10.113281-35.585937 24.4375-1.679688 2.898438-4.21875 5.203125-7.261719 6.597656-9.667969 5.566406-17.183594 14.222656-21.332031 24.578125 6.289062-22.550781 13.90625-44.707031 22.808594-66.355469 18.816406-14.390624 63.472656-32.429687 97.613281-39.253906 4.476562-1.058594 7.308593-5.46875 6.40625-9.980468-.902344-4.507813-5.214844-7.492188-9.75-6.746094-28.457031 6.035156-56.023438 15.679687-82.03125 28.699218 11.246093-23.929687 25.25-46.457031 41.726562-67.132812 18.582031-8.339844 38.683594-12.757812 59.050781-12.980469 4.710938 0 8.53125-3.820312 8.53125-8.53125 0-4.714843-3.820312-8.535156-8.53125-8.535156-18.816406.273437-37.472656 3.527344-55.269531 9.636719 2.558594-11.574219 3.921875-23.382813 4.070313-35.234375 0-4.714844-3.820313-8.535157-8.535156-8.535157-4.710938 0-8.53125 3.820313-8.53125 8.535157-.222657 12.339843-1.84375 24.621093-4.832032 36.597656-.195312.109375-.417968.136719-.605468.257813-14.449219 9.59375-27.683594 20.902343-39.414063 33.679687.558594-18.960937-1.742187-37.894531-6.828125-56.167969-1.488281-4.476562-6.324219-6.898437-10.800781-5.410156-4.480469 1.492188-6.902344 6.328125-5.410157 10.804688 6.023438 23.824218 7.613282 48.550781 4.691407 72.953124-11.378907 15.636719-21.113281 32.40625-29.046875 50.046876.578125-2.621094 1.226562-5.394532 1.953125-8.40625 7.40625-24.742188 9.042969-50.855469 4.789062-76.332032-1.136719-5.539062-2.636719-11.003906-4.488281-16.347656-.574219-1.707031-1.101562-3.464844-1.707031-5.070312-.445313-1.132813-.992188-2.234376-1.46875-3.359376-.9375-2.230468-1.894531-4.4375-2.910157-6.503906-.46875-.949218-1-1.878906-1.492187-2.816406-1.253906-2.371094-2.5625-4.667969-3.832031-6.828125-.214844-.347656-.382813-.707031-.597656-1.054687.121093-.085938.214843-.179688.332031-.265626.734375-.511718 1.535156-.980468 2.347656-1.441406.382813-.222656.734375-.460937 1.132813-.667968 1.230468-.640626 2.496093-1.207032 3.789062-1.707032l.214844-.101562c2.597656-1.011719 5.105468-2.246094 7.492187-3.6875 10.085938-5.953125 18.445313-14.433594 24.25-24.609375 5.257813-9.207031 15.90625-13.90625 26.25-11.585938 2.019531.269531 4.03125.441407 6.035157.511719h1.976562c5.230469.050781 10.4375-.636719 15.472656-2.039062 3.519532-.996094 7.089844-1.792969 10.699219-2.382813 1.152344-.1875 2.226563-.265625 3.355469-.410156 2.484375-.316407 4.957031-.589844 7.441406-.707031 1.066406-.050782 2.097656-.058594 3.128906-.078126 3.050782-.0625 6.101563.03125 9.140625.273438.246094 0 .519531 0 .769531.050781 3.769532.355469 7.519532.941407 11.21875 1.75h.121094c4.015625.867188 7.960938 2.03125 11.800782 3.480469 2.929687 1.140625 5.960937 1.992188 9.054687 2.542969zm-154.292969 20.984375c-2.042968.777344-4.035156 1.679687-5.972656 2.695312-.519531.265625-.980469.597656-1.484375.855469-.28125.160156-.632813.273437-.902344.433594.722657-11.050781 1.390625-25.402344 1.476563-41.617188 2.769531 11.539063 5.425781 24.109375 7.609375 37.292969-.246094.117188-.460938.253906-.726563.339844zm-130.113281-97.066406c-.160156-4.378907.886719-8.71875 3.027344-12.542969 3.851562-5.21875 6.796875-11.050781 8.703125-17.246094 1.476562-7.097656 6.367187-13.003906 13.066406-15.777344 9.421875-3.347656 18.09375-8.515625 25.515625-15.214843 6.660156-7.074219 16.777344-9.726563 26.050781-6.828126 7.4375 1.945313 15.261719 1.832032 22.640625-.332031 8.574219-2.925781 17.992188-2.039062 25.871094 2.441407 8.015625 5.441406 18 7.132812 27.359375 4.632812 11.925781-4.101562 25.070312 1 31.113281 12.074219 6.835938 10.445312 18.703125 16.480469 31.171875 15.847656 9.84375-1.078125 19.734375 1.582031 27.707032 7.457031 4.523437 4.800782 6.84375 11.269532 6.40625 17.851563.183593 8.21875 2.972656 16.167969 7.964843 22.699219 8.601563 10.480468 10.234375 25.042968 4.164063 37.171874-.214844 0-.429688 0-.632813-.0625-3.253906-.492187-6.742187-.847656-10.460937-1.058593-.417969 0-.855469-.066407-1.253906-.082031-11.960938-.539063-23.929688.859374-35.441407 4.144531-5.359375 1.492187-10.96875 1.851562-16.476562 1.058593-17.164063-3.304687-34.53125 4.648438-43.246094 19.796876-2.035156 3.425781-4.394531 6.648437-7.050781 9.617187-1.851563-10.078125-3.914063-19.695313-6.074219-28.738281 13.507813-31.148438 51.027344-50.347656 51.414063-50.5625 4.214843-2.121094 5.914062-7.257813 3.792968-11.472656-2.121094-4.214844-7.257812-5.914063-11.472656-3.792969-19.503906 10.300781-36.53125 24.726562-49.894531 42.273437-2.082031-7.386718-4.082031-14.019531-5.976563-19.820312.453125-8.003906 3.210938-35.363282 19.671875-40.859375 2.894531-.960938 5.058594-3.398438 5.671875-6.386719.613282-2.992188-.414062-6.082031-2.695312-8.109375-2.285156-2.023437-5.472656-2.679687-8.371094-1.714844-16.84375 5.605469-24.660156 21.953125-28.289062 36.078125-7.035157-8.957031-14.621094-17.472656-22.714844-25.488281-3.347656-3.234375-8.667969-3.1875-11.960938.101563-3.292968 3.292968-3.339844 8.613281-.105468 11.960937 9.023437 8.90625 17.34375 18.5 24.882812 28.691406 2.121094 26.175781 2.546875 52.460938 1.273438 78.695313-.664063-.90625-1.324219-1.808594-1.878907-2.648438-.679687-1.023437-1.308593-2.082031-1.875-3.171875-.324219-1.042969-.785156-4.882812-1.160156-7.972656-2.59375-22.125-8.859375-74-57.789063-74h-16.9375c-1.640624 0-3.226562 0-4.769531.070313h-1.800781c-2.050781.042968-4.039062.101562-5.921875.167968h-.746094c-1.515625.070313-3.003906.144532-4.425781.230469-.855469.050781-1.707031.121094-2.519531.1875l-2.132813.171875c-1.058594.101562-2.089844.207031-3.097656.324219zm-46.132813 43.417968c6.070313-3.117187 11.714844-7 16.800782-11.546875 6.601562-6.695312 14.933594-11.421875 24.066406-13.652343 1.023438-.238282 2.0625-.460938 3.164062-.648438l.667969-.109375c1.296875-.214844 2.636719-.402344 4.050781-.566406h.28125c1.554688-.167969 3.167969-.324219 4.875-.441407h.085938c1.738281-.121093 3.578125-.21875 5.511719-.300781h.085937c1.894532-.074219 3.898438-.136719 5.972656-.179687h.289063c1.996094-.039063 4.113281-.066406 6.316406-.09375h16.613281c29.703126 0 37.222657 28.359375 40.960938 59.011718.1875 4.46875 1.078125 8.878907 2.636719 13.070313 3.644531 6.539063 7.972656 12.675781 12.910156 18.304687 1.757813 2.167969 3.550781 4.394532 5.351563 6.699219l.382812.503907c.28125.359374.5625.777343.851562 1.144531 0 .050781 0 .109375.078126.160156l.777343 1.007813c1.023438 1.347656 2.054688 2.730468 3.078125 4.171874l.085938.109376c.257812.367187.511718.71875.761718 1.085937 2.074219 3.011719 3.949219 6.03125 5.671876 9.085937.324218.574219.632812 1.1875.957031 1.777344 1.289062 2.378906 2.457031 4.792969 3.558593 7.234375.433594.992188.855469 1.972657 1.304688 3.003907.921875 2.246093 1.707031 4.550781 2.511719 6.828124.339843 1.023438.714843 1.996094 1.039062 3.054688 1.015625 3.414062 1.902344 6.828125 2.628907 10.445312 3.664062 23.035157 2.078124 46.601563-4.640626 68.941407-.480468 1.976562-.933593 3.863281-1.367187 5.722656-16.453125-29.78125-33.585937-57.929687-48.957031-81.996094-3.171875-29.316406-4.832032-58.777343-4.980469-88.269531 0-4.710938-3.820313-8.53125-8.535156-8.53125-4.710938 0-8.535157 3.820312-8.535157 8.53125 0 1.511719 0 27.804688 2.050782 57.652344-5.574219-8.328125-10.632813-15.761719-14.96875-22.03125-.066406-.09375-.171875-.144532-.238282-.238282-5.859374-17.035156-10.023437-34.601562-12.441406-52.449218 0-4.710938-3.820312-8.53125-8.535156-8.53125-4.710938 0-8.53125 3.820312-8.53125 8.53125 1.054688 12.5 3.449219 24.847656 7.148438 36.832031-11.894532-8.210937-24.882813-14.714844-38.585938-19.320313-2.894531-.964843-6.085938-.308593-8.367188 1.71875-2.285156 2.027344-3.3125 5.117188-2.699218 8.105469.613281 2.992188 2.777344 5.425781 5.671875 6.390625 17.316406 5.59375 33.183593 14.945313 46.464843 27.382813.121094.933593.355469 1.847656.699219 2.722656 8.535157 18.21875 17.390625 38.867187 25.710938 60.089844-20.949219-16.644531-42.921875-31.960938-65.78125-45.867188-4.03125-2.324219-9.179688-.988281-11.578125 3-2.394532 3.984375-1.15625 9.160157 2.789062 11.628907.597656.367187 59.3125 35.789062 87.550782 66.257812 8.667968 24.035156 15.707031 48.625 21.078124 73.601562-2.144531-1.628906-4.113281-3.027343-5.8125-4.164062-3.046874-2.105469-5.246093-5.222656-6.203124-8.796875-7.960938-27.691406-35.550782-65.980469-66.621094-65.980469-27.125 0-41.617188-10.957031-43.058594-32.570312-.667969-9.210938-5.460938-17.625-13.039062-22.894532-16.890626-12.136718-23.328126-34.230468-15.597657-53.539062 1.859375-6.046875 3.175781-12.246094 3.925781-18.527344 1.128907-13.859375 9.3125-26.160156 21.65625-32.5625zm0 0"/></svg>