<svg id="Layer_1" height="26" viewBox="0 0 55 55" xmlns="http://www.w3.org/2000/svg" data-name="Layer 1"><path d="m51.5 6h-9.36a4.83 4.83 0 0 0 -3.86 2l-27.07 30.86h-7.71a.76.76 0 0 0 -.75.75v9.84a.76.76 0 0 0 .75.75h10.05a4.83 4.83 0 0 0 3.86-2l27.06-30.85h7a.76.76 0 0 0 .75-.75v-9.84a.76.76 0 0 0 -.72-.76zm-17.89 19.07a.74.74 0 0 1 -.74-.7v-.63l-10.21 11.54a.77.77 0 0 1 -.56.25.75.75 0 0 1 -.57-1.24l10.12-11.53h-.62a.76.76 0 0 1 -.8-.7.75.75 0 0 1 .7-.8l2.43-.16a.76.76 0 0 1 .69.45.72.72 0 0 1 .07.25l.15 2.43a.75.75 0 0 1 -.66.84z"/><path d="m26 16h-4.9a3.36 3.36 0 0 0 -3.35 3.35v10.08l10.78-12.28a3.35 3.35 0 0 0 -2.53-1.15z"/><circle cx="23.53" cy="9.71" r="4.91" transform="matrix(.707 -.707 .707 .707 .03 19.48)"/></svg>