<svg viewBox="0 0 511.406 511.406" style="enable-background:new 0 0 511.406 511.406;" height="26">
<g>
	<g>
		<path d="M255.703,170.072c-5.888,0-10.667,4.779-10.667,10.667v320c0,5.888,4.779,10.667,10.667,10.667
			s10.667-4.757,10.667-10.667v-320C266.37,174.851,261.591,170.072,255.703,170.072z"/>
	</g>
</g>
<g>
	<g>
		<path d="M255.703,84.739c-29.419,0-53.333,23.936-53.333,53.333s23.915,53.333,53.333,53.333
			c29.419,0,53.333-23.936,53.333-53.333S285.122,84.739,255.703,84.739z M255.703,170.072c-17.643,0-32-14.357-32-32
			c0-17.643,14.357-32,32-32c17.643,0,32,14.357,32,32C287.703,155.715,273.346,170.072,255.703,170.072z"/>
	</g>
</g>
<g>
	<g>
		<path d="M159.703,138.072c0-18.347,5.397-36.331,15.637-52.011c3.2-4.928,1.813-11.541-3.115-14.763
			c-4.949-3.157-11.541-1.813-14.763,3.115c-12.48,19.157-19.093,41.173-19.093,63.659c0,22.464,6.592,44.437,19.029,63.552
			c2.048,3.136,5.461,4.843,8.939,4.843c1.984,0,4.011-0.555,5.803-1.728c4.928-3.2,6.315-9.835,3.115-14.763
			C165.079,174.339,159.703,156.376,159.703,138.072z"/>
	</g>
</g>
<g>
	<g>
		<path d="M121.538,224.963c-16.896-25.984-25.835-56.021-25.835-86.891c0-30.635,8.811-60.501,25.472-86.379
			c3.221-4.949,1.771-11.541-3.157-14.741c-4.928-3.157-11.541-1.792-14.741,3.179C84.375,69.464,74.37,103.32,74.37,138.072
			c0,35.008,10.133,69.099,29.291,98.539c2.048,3.136,5.461,4.843,8.939,4.843c2.005,0,4.011-0.555,5.824-1.728
			C123.351,236.526,124.738,229.891,121.538,224.963z"/>
	</g>
</g>
<g>
	<g>
		<path d="M31.703,138.072c0-43.2,12.501-85.248,36.139-121.6c3.221-4.928,1.813-11.541-3.115-14.741
			C59.82-1.49,53.207-0.082,49.964,4.846C24.066,44.654,10.37,90.734,10.37,138.072c0,47.317,13.675,93.355,39.531,133.163
			c2.048,3.157,5.461,4.864,8.939,4.864c2.005,0,4.032-0.555,5.824-1.728c4.928-3.2,6.315-9.835,3.115-14.763
			C44.183,223.278,31.703,181.23,31.703,138.072z"/>
	</g>
</g>
<g>
	<g>
		<path d="M353.964,75.096c-3.2-4.949-9.792-6.293-14.763-3.115c-4.949,3.2-6.315,9.835-3.115,14.763
			c10.219,15.659,15.616,33.643,15.616,51.989c0,18.304-5.376,36.245-15.552,51.904c-3.221,4.949-1.813,11.563,3.115,14.763
			c1.792,1.173,3.797,1.728,5.803,1.728c3.499,0,6.912-1.707,8.939-4.843c12.437-19.115,19.029-41.088,19.029-63.552
			C373.036,116.227,366.423,94.211,353.964,75.096z"/>
	</g>
</g>
<g>
	<g>
		<path d="M408.108,40.792c-3.2-4.949-9.813-6.293-14.741-3.179c-4.928,3.179-6.357,9.792-3.157,14.741
			c16.683,25.877,25.493,55.723,25.493,86.379c0,30.869-8.939,60.907-25.813,86.869c-3.221,4.949-1.813,11.563,3.115,14.763
			c1.792,1.173,3.797,1.728,5.803,1.728c3.477,0,6.891-1.707,8.939-4.821c19.157-29.461,29.291-63.531,29.291-98.539
			C437.036,103.982,427.031,70.104,408.108,40.792z"/>
	</g>
</g>
<g>
	<g>
		<path d="M461.42,5.507c-3.2-4.949-9.835-6.336-14.741-3.115c-4.928,3.2-6.315,9.813-3.115,14.741
			c23.637,36.352,36.139,78.4,36.139,121.6c0,43.157-12.48,85.184-36.053,121.515c-3.221,4.949-1.813,11.563,3.115,14.763
			c1.792,1.173,3.797,1.728,5.803,1.728c3.477,0,6.891-1.707,8.917-4.843c25.877-39.808,39.552-85.867,39.552-133.163
			C501.036,91.374,487.34,45.315,461.42,5.507z"/>
	</g>
</g>
<g>
</g>
<g>
</g>
<g>
</g>
<g>
</g>
<g>
</g>
<g>
</g>
<g>
</g>
<g>
</g>
<g>
</g>
<g>
</g>
<g>
</g>
<g>
</g>
<g>
</g>
<g>
</g>
<g>
</g>
</svg>
